<svg width="16" height="16" viewBox="0 0 16 16" fill="none" xmlns="http://www.w3.org/2000/svg">
<path d="M14.9445 5.75345C14.9843 5.40246 14.9271 5.1856 14.7728 5.10286C14.737 4.35645 14.3272 4.04122 13.5434 4.15716C12.7935 3.80621 12.2503 4.04303 11.9138 4.86762C11.3201 5.52473 11.3884 6.09007 12.1189 6.56363C12.0048 6.78742 11.9671 6.95922 12.006 7.07903C11.7825 7.32368 11.6501 7.52781 11.6087 7.69143C10.9071 7.43579 10.4019 7.42514 10.0931 7.65948C9.62984 8.011 9.52159 9.0979 10.5163 9.04284C10.7665 9.39693 10.8561 9.68653 10.7851 9.91163C10.7142 10.1367 10.3623 10.0219 9.72938 9.56719C9.14985 9.01484 8.84354 8.73867 8.81045 8.73867C8.76081 8.73867 9.01768 7.95132 8.98237 7.60215C8.95883 7.36937 8.75146 7.21769 8.36025 7.1471C8.08265 7.13988 7.90735 7.2697 7.83435 7.53656C7.55132 7.45869 7.33419 7.51163 7.18293 7.69538C7.06175 7.47542 6.96512 7.33237 6.89305 7.26623C6.64104 7.03497 6.36439 7.00027 6.15604 7.05942C5.70946 7.18622 5.47364 7.46517 5.42234 8.30052C5.38814 8.85741 5.47074 9.10485 5.67015 9.04284V9.16702C5.50494 9.26975 5.42234 9.35914 5.42234 9.43518C5.32361 9.34229 5.24492 9.30217 5.18626 9.3148C5.19947 8.75276 5.18067 8.4217 5.12985 8.32163C5.05362 8.17151 4.9228 7.81734 4.55514 7.81734C4.31004 7.81734 4.14607 7.91283 4.06325 8.10382C3.81062 7.94865 3.60238 7.94264 3.43853 8.08579C3.19276 8.30052 3.18537 8.56716 3.21346 9.01252C3.24155 9.45789 3.31085 9.96546 3.24155 10.1624L3.13285 10.1753C3.13369 9.78024 3.11099 9.5411 3.06473 9.45789C3.02764 9.39116 2.7806 9.19169 2.42595 9.20807C2.0713 9.22444 1.92076 9.41543 1.85643 9.63783C1.71822 10.1157 1.73566 10.3941 1.73566 10.3941C1.57441 9.98105 1.4817 9.66898 1.45751 9.45789C1.39136 8.88042 1.42021 8.35144 1.45751 7.94444C1.4903 7.58674 1.52455 7.3281 1.57629 7.1471C1.79061 6.39732 1.8918 6.16563 2.08357 6.23449C2.27534 6.30334 2.37507 6.44874 2.32521 6.70457C2.27534 6.96041 2.29781 7.25684 2.51761 7.3344C2.7374 7.41197 3.12214 7.54318 3.31838 6.99554L3.35206 6.65208C3.51865 6.50169 3.60195 6.30104 3.60195 6.05012C3.60195 5.67374 3.56893 5.39218 3.24155 5.00568C2.91418 4.61918 2.60397 4.40914 1.95911 4.46922C1.31426 4.52929 0.734068 5.13445 0.480902 5.81746C0.227736 6.50046 0.0263035 7.36899 0.0263035 8.03668C0.0263035 8.38509 -0.0584247 9.27255 0.0762531 10.0687C0.199676 10.7983 0.539134 11.4502 0.626632 11.5595C0.916385 11.9211 1.33022 12.1351 1.38881 12.1546C1.95849 12.3446 2.45045 12.2448 2.76587 11.8787C2.94308 12.1324 3.14775 12.2425 3.37985 12.209C3.72802 12.1588 3.72802 12.0237 3.85095 11.8007C4.10284 11.7264 4.25142 11.6334 4.29669 11.5216C4.58284 11.5696 4.78015 11.5516 4.88863 11.4676C5.33905 11.5889 5.65274 11.5697 5.82971 11.4099C6.09881 11.5749 6.36704 11.5762 6.6344 11.4138C6.80929 11.3076 7.02382 11.2225 7.18293 11.0984C7.38866 10.9379 7.52255 10.7343 7.57493 10.5636C7.80916 10.6684 8.03458 10.6909 8.25118 10.631C8.83186 11.2057 9.42258 11.4931 10.0234 11.4931C10.663 11.7168 11.1647 11.693 11.5283 11.4216C12.0738 11.0145 12.159 10.4923 12.159 10.4923C12.5595 10.9208 12.9009 11.1591 13.1831 11.2072C13.5127 11.2634 13.9437 11.3104 14.3515 11.0145C14.7461 10.7281 15.0817 10.1274 15.0817 9.94752C15.3309 9.87668 15.6867 9.25378 15.6867 8.60675C15.6867 8.17539 15.6344 7.8716 15.5296 7.69538L15.6867 7.11587C15.8956 6.98512 16 6.80104 16 6.56363C16 6.41046 15.9089 6.15946 15.616 5.9791C15.5086 5.91298 15.2848 5.83776 14.9445 5.75345Z" fill="white"/>
<path fill-rule="evenodd" clip-rule="evenodd" d="M2.56336 6.3238C2.62011 6.49085 2.62011 6.63135 2.56336 6.74528C2.47823 6.91618 2.51756 7.12747 2.71733 7.18025C2.91709 7.23303 3.18364 7.15665 3.18364 6.54503C3.40335 6.28049 3.48466 6.01644 3.42757 5.75285C3.34194 5.35748 2.87789 4.73213 2.39924 4.66855C1.92059 4.60496 1.35199 4.65135 0.896549 5.45848C0.441105 6.26561 0.227539 7.52812 0.227539 8.2177C0.227539 8.90727 0.243887 10.4897 0.570218 10.9775C0.928912 11.6298 1.35831 11.9786 1.85842 12.0237C2.36212 11.9639 2.69902 11.7578 2.86912 11.4054L2.99993 11.479C2.9636 11.7182 2.98513 11.8688 3.06453 11.9307C3.18364 12.0237 3.64309 12.0846 3.7071 11.6275C3.98197 11.5654 4.17538 11.4302 4.28733 11.222C4.5581 11.3826 4.76671 11.3725 4.91317 11.1916C5.43856 11.3963 5.72211 11.3656 5.7638 11.0997C5.91324 11.2078 6.03572 11.2707 6.13122 11.2884C6.27448 11.3149 6.46734 11.3047 6.57343 11.2375C6.67951 11.1703 6.97285 10.9937 7.05326 10.9611C7.13367 10.9285 7.39715 10.6963 7.39715 10.4852C7.39715 10.3444 7.42317 10.1354 7.47522 9.85801C7.49616 10.3745 7.77999 10.549 8.32671 10.3815C9.04022 11.07 9.64764 11.3571 10.149 11.2428C10.6949 11.602 11.2441 11.484 11.7966 10.8887C12.0516 10.3772 12.0873 9.89735 11.9038 9.44929C11.6285 8.7772 11.1309 8.72129 11.0203 8.72998C10.9097 8.73867 10.7587 8.77252 10.8015 9.04284C10.9935 9.39241 11.0712 9.67306 11.0346 9.88481C10.9798 10.2024 10.7407 10.2637 10.2194 10.0601C9.87177 9.92434 9.45564 9.6014 8.97095 9.09127C8.78017 8.91094 8.663 8.82077 8.61944 8.82077C8.55409 8.82077 8.8445 7.72937 8.78418 7.57067C8.40425 7.20674 8.13099 7.28844 7.96441 7.81576C7.57145 7.51943 7.32135 7.65636 7.21411 8.22656C6.9956 7.72292 6.82016 7.43591 6.6878 7.36554C6.48925 7.25999 5.95705 7.01961 5.7638 7.61866C5.57055 8.2177 5.59696 8.69364 5.7638 8.86824C5.93065 9.04284 6.2851 8.98778 6.2851 8.98778C5.78594 9.18959 5.53636 9.47233 5.53636 9.836C5.37135 9.54059 5.20861 9.42389 5.04813 9.48588C4.99166 9.0781 4.96343 8.75829 4.96343 8.52644C4.96343 8.29459 4.82971 8.11201 4.56227 7.97868C4.26512 8.02347 4.13125 8.25078 4.16067 8.66061C4.11741 8.32316 3.96415 8.15443 3.70091 8.15443C3.43767 8.15443 3.34656 8.46671 3.42757 9.09127C3.51544 9.6646 3.51544 10.0496 3.42757 10.2462L3.3833 10.4132C3.24805 10.323 3.11867 10.3124 2.99515 10.3815C2.98895 9.84526 2.96293 9.54671 2.91709 9.48588C2.84833 9.39463 2.46589 9.29656 2.29499 9.39122C2.12409 9.48588 2.0655 9.59014 2.0004 9.91819C1.93529 10.2462 1.98679 10.6753 1.72205 10.5802C1.45732 10.4852 1.27152 9.7578 1.27152 8.86824C1.27152 7.97868 1.29279 6.77891 1.57441 6.4383C1.72205 6.25972 1.81831 5.98028 2.11355 5.98028C2.30401 5.98028 2.45395 6.09478 2.56336 6.3238Z" stroke="#623E42" stroke-width="0.3"/>
<path d="M12.5395 6.48499C12.9944 5.87955 13.4829 5.63976 14.0051 5.76561C14.1647 5.88006 14.223 6.01278 14.1802 6.16377C14.3558 6.08894 14.4686 6.06784 14.5187 6.10048C14.5649 6.13055 14.593 6.23019 14.4564 6.28911C14.3705 6.32614 14.2111 6.28911 13.9672 6.32458C13.989 6.19723 13.9343 6.1066 13.8031 6.05269C13.9175 6.22198 13.9129 6.34027 13.7894 6.40756C13.4756 6.31788 13.2576 6.32259 13.1353 6.42169C13.0582 6.48409 12.9711 6.61124 12.8617 6.71117C12.7106 6.8493 12.5381 6.95631 12.4816 6.95631C12.663 6.90906 12.7965 6.84995 12.8822 6.77899C13.0106 6.67255 13.1171 6.42186 13.7217 6.52992C13.7847 6.56512 13.8541 6.55588 13.9298 6.50221C14.0044 6.44935 14.3152 6.46282 14.4964 6.38336C14.5912 6.34178 14.6334 6.24596 14.6245 6.16377C14.6072 6.00427 14.4879 5.96725 14.2665 6.05269C14.2499 5.91201 14.2007 5.81632 14.1188 5.76561C14.0445 5.74009 14.377 5.82591 14.4964 5.66032C14.6158 5.49473 14.4094 5.30421 14.2828 5.35009C14.1563 5.39597 14.1556 5.53018 14.2111 5.59525C14.2188 5.47241 14.2628 5.41852 14.3432 5.43359C14.4638 5.45618 14.5077 5.57798 14.3871 5.66032C14.3067 5.71521 14.2079 5.72708 14.0908 5.69592L13.9879 5.31598C14.2643 5.25147 14.3706 5.11593 14.3068 4.90934C14.2111 4.59946 13.7314 4.46767 13.4775 4.68293C13.2306 4.46524 12.9858 4.40075 12.743 4.48946C12.3787 4.62253 12.3539 4.93953 12.3539 5.20197C12.0969 5.27341 11.9272 5.34841 11.9272 5.69592C11.9272 6.04342 12.2778 6.11274 12.4536 6.03765C12.5109 6.22313 12.5395 6.37225 12.5395 6.48499Z" fill="#623E42"/>
<path fill-rule="evenodd" clip-rule="evenodd" d="M14.0249 5.94409C13.9508 5.82234 13.8615 5.80914 13.7571 5.90447C13.7991 5.8974 13.8437 5.8974 13.891 5.90447C13.9382 5.91155 13.9829 5.92476 14.0249 5.94409ZM13.4367 5.98852C13.3653 5.97145 13.2742 6.02888 13.1633 6.1608C13.1633 6.05876 13.1908 5.99245 13.246 5.96187C13.3011 5.93128 13.3647 5.94016 13.4367 5.98852ZM13.6792 6.64617C13.7586 6.69104 13.834 6.68725 13.9056 6.63479C13.9771 6.58233 13.9955 6.59816 13.9605 6.68228C13.9416 6.72323 13.902 6.74931 13.8419 6.76052C13.7817 6.77172 13.7275 6.73361 13.6792 6.64617ZM13.0437 8.57703C13.0469 8.59023 13.0491 8.59924 13.0491 8.60384C13.0491 8.63707 12.9049 8.3775 12.9259 8.21907C12.9399 8.11345 13.0134 8.00577 13.1462 7.89603C12.9652 8.25087 13.024 8.49497 13.0437 8.57703Z" fill="#623E42"/>
<path d="M13.2489 8.72998C13.1597 8.42812 13.14 8.19997 13.1896 8.04553C13.2766 7.77508 13.6607 7.40185 13.679 7.16184C13.7006 6.87882 13.3769 6.7714 13.3032 6.95631C13.2294 7.14123 13.3503 7.20805 13.411 7.22718C13.3628 7.31002 13.2972 7.32562 13.2143 7.27398C13.09 7.19651 13.0486 6.94914 13.2489 6.8322C13.4491 6.71527 13.6208 6.8039 13.679 6.89417C13.7372 6.98444 13.9509 7.26104 13.5165 7.75621C13.2269 8.08633 13.1377 8.41092 13.2489 8.72998Z" fill="#623E42"/>
<path fill-rule="evenodd" clip-rule="evenodd" d="M14.1963 7.19008C14.2021 7.38819 14.2925 7.50545 14.2925 7.50545C14.2925 7.50545 14.2188 6.94277 14.3489 6.92021C14.4154 6.90869 14.4237 6.98212 14.4329 7.06449C14.4418 7.14327 14.4515 7.23022 14.5141 7.2588C14.6421 7.31725 14.696 7.09545 14.7222 6.95631C14.7313 6.90746 14.6993 6.83959 14.6637 6.82369C14.6381 6.81228 14.6095 6.81816 14.5832 6.82356C14.5418 6.83206 14.5063 6.83936 14.4976 6.7762C14.4907 6.72659 14.6243 6.64421 14.6849 6.64421C14.7252 6.64421 14.7632 6.71531 14.7989 6.85752C14.7989 6.608 14.8453 6.42055 14.938 6.29517C14.9428 6.39724 14.9428 6.4731 14.938 6.52275C14.9339 6.56547 14.93 6.60491 14.9264 6.64095C14.9015 6.89331 14.893 6.97892 14.938 6.85752C15.0321 6.6041 15.2508 6.38693 15.315 6.45376C15.3188 6.45765 15.3087 6.4682 15.2909 6.48681C15.2653 6.51366 15.2236 6.5573 15.1843 6.62191C15.1577 6.66567 15.1197 6.75153 15.0704 6.8795C15.2211 6.69621 15.3368 6.61519 15.4176 6.63643C15.3321 6.69783 15.2529 6.8004 15.199 6.93954C15.175 7.00138 15.1564 7.06803 15.1373 7.13646C15.1144 7.21827 15.0908 7.30263 15.0566 7.38436C15.0147 7.48427 14.9488 7.58187 14.8784 7.66014C14.6886 7.87106 14.456 7.90204 14.1808 7.75309C14.3164 7.87537 14.4906 7.91655 14.7034 7.87665C14.8504 7.84907 15.0192 7.68493 15.1279 7.48051C15.1624 7.41552 15.1873 7.31861 15.2145 7.21225C15.246 7.08965 15.2806 6.95448 15.3371 6.84114C15.3775 6.76013 15.4357 6.71295 15.4808 6.6764C15.5194 6.64514 15.5484 6.62166 15.5484 6.59146C15.5484 6.56163 15.473 6.55041 15.3223 6.55783C15.4175 6.45698 15.4306 6.3905 15.3617 6.35838C15.2582 6.31021 15.1279 6.39363 15.0225 6.55783C15.0347 6.51002 15.0651 6.20752 14.9499 6.20752C14.869 6.22176 14.8046 6.35989 14.7569 6.62191C14.7483 6.6047 14.7002 6.54429 14.6268 6.5709C14.5367 6.60359 14.4196 6.72946 14.4258 6.76243C14.4262 6.76426 14.4266 6.76633 14.427 6.76858C14.4321 6.79706 14.4429 6.85626 14.4773 6.8795C14.4955 6.89182 14.5232 6.89095 14.5499 6.8901C14.5704 6.88945 14.5904 6.88882 14.6051 6.89423C14.6351 6.90532 14.6388 6.94792 14.6405 6.97175C14.6542 7.16729 14.4773 7.24574 14.4773 7.04119C14.4773 6.96475 14.463 6.895 14.4258 6.85752C14.3636 6.79471 14.263 6.79495 14.2466 6.80458C14.238 6.80961 14.2375 6.82997 14.2369 6.85682C14.2365 6.87576 14.236 6.89792 14.2326 6.92021C14.2291 6.94285 14.2246 6.96695 14.22 6.99175C14.2077 7.0578 14.1945 7.12878 14.1963 7.19008ZM13.4681 8.85865C13.4728 8.87388 13.477 8.88713 13.4799 8.89819C13.5 8.97319 13.3035 8.6718 13.3337 8.36523C13.3534 8.1657 13.5485 7.95912 13.6549 7.88072C13.7957 7.77697 13.874 7.63983 13.89 7.46929C13.9611 7.64469 13.8974 7.82109 13.6989 7.99848C13.3079 8.34175 13.42 8.70329 13.4681 8.85865Z" fill="#623E42"/>
<path fill-rule="evenodd" clip-rule="evenodd" d="M15.0537 8.99172C15.0191 8.99493 14.9743 8.99909 14.9164 9.00009C14.9072 9.00025 14.8911 8.99856 14.8711 8.99645C14.8147 8.99052 14.7267 8.98125 14.6678 9.00009C14.5811 9.02786 14.5514 9.10863 14.6133 9.13947C14.7322 9.1987 15.1664 9.19276 15.1664 9.06978C15.1664 8.98127 15.1481 8.98297 15.0537 8.99172ZM14.4857 9.20279C14.4616 9.18194 14.4355 9.1594 14.4001 9.14314C14.3053 9.09963 14.1863 9.1729 14.2461 9.26981C14.3121 9.37675 14.5676 9.51176 14.6772 9.53382C14.8357 9.56572 14.9737 9.50152 15.0167 9.42682C15.0702 9.33393 14.9933 9.32538 14.8294 9.32538C14.7146 9.32538 14.6334 9.29889 14.5352 9.24078C14.518 9.23066 14.5024 9.21712 14.4857 9.20279Z" fill="#F95300"/>
<path fill-rule="evenodd" clip-rule="evenodd" d="M15.0147 8.95269C14.9801 8.9559 14.9352 8.96006 14.8774 8.96106C14.8681 8.96122 14.8521 8.95953 14.832 8.95742C14.7757 8.95149 14.6876 8.94222 14.6287 8.96106C14.542 8.98883 14.5123 9.0696 14.5742 9.10044C14.6931 9.15967 15.1274 9.15373 15.1274 9.03075C15.1274 8.94224 15.109 8.94394 15.0147 8.95269ZM14.4467 9.16376C14.4225 9.14291 14.3964 9.12037 14.361 9.10411C14.2663 9.0606 14.1472 9.13387 14.207 9.23078C14.273 9.33772 14.5285 9.47273 14.6381 9.49479C14.7966 9.52669 14.9346 9.46249 14.9776 9.38779C15.0311 9.2949 14.9542 9.28635 14.7903 9.28635C14.6755 9.28635 14.5943 9.25986 14.4961 9.20175C14.479 9.19163 14.4633 9.17809 14.4467 9.16376Z" fill="#623E42"/>
<path fill-rule="evenodd" clip-rule="evenodd" d="M10.4927 7.97176C10.8917 7.78117 11.5613 7.98978 11.9751 8.24851C12.251 8.421 12.5608 8.76974 12.9045 9.29472C14.1134 9.04724 14.6703 9.84758 14.6721 9.87202C14.6732 9.88832 14.5614 10.0581 14.3367 10.3813C13.9689 11.0236 13.2826 10.7804 12.9526 10.6581C12.6491 10.5457 12.6137 10.2637 12.5658 9.88273C12.5617 9.84949 12.5574 9.8155 12.5529 9.7808C12.5084 9.44146 12.3466 9.26221 12.0827 8.96977C12.0104 8.88959 11.9303 8.8009 11.8429 8.69808C11.5721 8.37949 11.2055 8.26334 10.7431 8.34962C10.5515 8.71047 10.3896 8.64578 10.3071 8.6099C10.2246 8.57403 10.0937 8.16236 10.4927 7.97176ZM13.2519 10.0991C13.1669 10.2745 13.1817 10.4326 13.2963 10.5733C13.4683 10.7843 13.819 10.7034 13.7248 10.6496C13.662 10.6137 13.6544 10.5708 13.7022 10.521C13.7626 10.5231 13.8144 10.5243 13.8577 10.5245L13.8771 10.5245C14.0366 10.5242 14.0644 10.5089 13.9605 10.4786C13.8261 10.4394 13.7929 10.3906 13.8612 10.3321C13.8347 10.3253 13.7853 10.3083 13.713 10.2813L13.6927 10.2736C13.5885 10.2342 13.4415 10.1761 13.2519 10.0991ZM13.0977 9.76056C13.3064 9.6471 13.4607 9.65871 13.4982 9.71787C13.5468 9.79478 13.4607 9.77929 13.4231 9.77254C13.4161 9.77128 13.4108 9.77033 13.4084 9.77033H13.0799L13.0977 9.76056ZM13.9065 9.5422C13.5444 9.3521 13.202 9.38352 12.8793 9.63646C13.0705 9.58001 13.2034 9.54859 13.278 9.5422C13.4298 9.5292 13.5422 9.56152 13.6231 9.58478C13.6368 9.58871 13.6495 9.59238 13.6614 9.59553C13.7958 9.63108 13.8775 9.61331 13.9065 9.5422ZM11.7737 8.36337C11.7124 8.3015 11.6549 8.23813 11.6673 8.22857C11.6915 8.20986 11.8642 8.31071 11.9312 8.36446C12.1699 8.55592 12.234 8.69964 12.1804 8.69964C12.1358 8.69964 12.0398 8.62213 11.903 8.48842C11.9013 8.48678 11.8972 8.48295 11.8913 8.47737C11.8714 8.4586 11.8306 8.42008 11.7891 8.37877L11.7737 8.36337Z" fill="#F95300"/>
<path fill-rule="evenodd" clip-rule="evenodd" d="M11.8974 8.20948C11.4836 7.95074 10.8141 7.74213 10.4151 7.93273C10.016 8.12333 10.147 8.535 10.2295 8.57087C10.312 8.60675 10.4739 8.67144 10.6655 8.31059C11.1279 8.22431 11.4945 8.34046 11.7653 8.65905C11.8527 8.76187 11.9327 8.85056 12.0051 8.93073C12.269 9.22318 12.4307 9.40243 12.4752 9.74177C12.4798 9.77647 12.484 9.81046 12.4882 9.8437C12.536 10.2247 12.5715 10.5067 12.875 10.6191C13.2049 10.7413 13.8912 10.9846 14.259 10.3423C14.4838 10.019 14.5956 9.84929 14.5944 9.83299C14.5927 9.80855 14.0358 9.00821 12.8268 9.25569C12.4831 8.73071 12.1733 8.38197 11.8974 8.20948ZM13.1976 10.4819C13.083 10.3413 13.0751 10.2006 13.1739 10.0601C13.4166 10.1496 13.585 10.2043 13.6792 10.2242C13.7967 10.249 13.9005 10.2537 13.9827 10.2541L14.0037 10.2541L14.0502 10.2537C14.1284 10.2527 14.1757 10.2521 14.1806 10.275C14.184 10.2913 14.1229 10.2999 14.0503 10.3102C13.9928 10.3183 13.928 10.3275 13.8825 10.3423C13.8126 10.365 13.8008 10.4157 13.8825 10.4395C13.9864 10.4698 13.9585 10.4851 13.7991 10.4855L13.7797 10.4855C13.7364 10.4853 13.6845 10.4841 13.6241 10.4819C13.5764 10.5318 13.584 10.5747 13.6468 10.6106C13.741 10.6644 13.3696 10.693 13.1976 10.4819ZM12.8294 9.93604C12.8096 9.87939 12.7779 9.87939 12.7344 9.93604C12.7203 10.1075 12.7203 10.2205 12.7344 10.275C12.7723 10.4214 12.8421 10.4423 12.8294 10.4187C12.8152 10.3923 12.8213 10.3006 12.8284 10.2026L12.8304 10.1744L12.8324 10.1463C12.8384 10.0574 12.8422 9.97274 12.8294 9.93604ZM13.0197 9.72153C13.2283 9.60807 13.3827 9.61968 13.4201 9.67883C13.4688 9.75575 13.3826 9.74026 13.3451 9.73351C13.3381 9.73225 13.3328 9.7313 13.3303 9.7313H13.0019L13.0197 9.72153ZM13.8284 9.50317C13.4663 9.31307 13.1239 9.34449 12.8012 9.59743C12.9925 9.54098 13.1254 9.50956 13.2 9.50317C13.3518 9.49017 13.4642 9.52249 13.5451 9.54575L13.5451 9.54576C13.5587 9.54968 13.5715 9.55335 13.5834 9.5565C13.7177 9.59205 13.7994 9.57428 13.8284 9.50317ZM11.6957 8.32434C11.6343 8.26247 11.5769 8.1991 11.5893 8.18954C11.6135 8.17083 11.7862 8.27168 11.8532 8.32543C12.0918 8.51689 12.1559 8.66061 12.1023 8.66061C12.0578 8.66061 11.9618 8.5831 11.8249 8.44939C11.8232 8.44775 11.8192 8.44392 11.8133 8.43834C11.7934 8.41957 11.7526 8.38105 11.7111 8.33974L11.6957 8.32434Z" fill="#623E42"/>
<path fill-rule="evenodd" clip-rule="evenodd" d="M12.848 9.08187C13.3561 9.00109 13.7326 9.03245 13.9775 9.17596C14.0026 8.97441 14.1311 8.89266 14.3631 8.93071C14.4157 8.8466 14.4846 8.80455 14.57 8.80455L14.7876 8.80433C15.1218 8.74914 15.3022 8.79728 15.3288 8.94875C15.3555 9.10022 15.3144 9.21638 15.2055 9.29722C15.284 9.59938 15.1345 9.73797 14.757 9.71298C14.8181 9.92827 14.8171 10.0738 14.7538 10.1495C14.659 10.2632 14.3063 10.8293 13.9775 10.9488C13.6486 11.0683 13.152 11.0195 12.9181 10.8456C12.6842 10.6717 12.3701 10.6208 12.3035 9.89838C12.2591 9.41677 11.9421 8.96747 11.3525 8.5505C11.0996 8.44833 10.9156 8.43216 10.8007 8.502C10.7002 8.72744 10.5488 8.84016 10.3465 8.84016C10.0431 8.84016 9.88514 8.44007 9.91844 8.25139C9.95175 8.06271 10.2388 7.60077 10.8946 7.67693C11.1665 7.70852 11.6305 7.85925 12.1198 8.18726C12.3219 8.32276 12.5647 8.62096 12.848 9.08187Z" stroke="#623E42" stroke-width="0.3"/>
<path d="M7.92844 8.96434C7.88289 8.7888 7.86012 8.66786 7.86012 8.60151C7.86012 8.502 7.91957 8.41497 7.92844 8.34338C7.94583 8.20313 7.80808 7.88239 7.64199 7.88239C7.4759 7.88239 7.47396 8.15198 7.4759 8.26532C7.48374 8.7279 7.633 9.44613 7.64199 9.50922C7.70764 9.96962 7.81046 10.2263 8.00111 10.2505C8.26682 10.2841 8.16264 10.0283 8.21893 9.94443C8.22741 9.93179 8.30371 9.95681 8.37809 10.0283C8.5792 10.2217 8.92893 10.6457 9.10515 10.7498C9.34303 10.8921 9.50898 10.9787 9.60302 11.0096C9.84238 11.0882 10.0111 11.0476 10.0555 11.0472C10.1232 11.0466 9.83913 10.7986 9.81765 10.7812C9.6807 10.6706 9.53374 10.6201 9.53374 10.5551C9.83543 10.7023 10.0405 10.7991 10.149 10.8456C10.3999 10.9532 10.5546 10.9914 10.5702 11.0096C10.6111 11.0574 10.3592 11.0901 10.3778 11.1185C10.4234 11.1875 10.8592 11.2902 11.2517 11.1185C11.6442 10.9468 11.7844 10.4545 11.7844 10.1607C11.7844 9.46928 11.1536 8.92952 11.0649 8.92952C11.2664 9.37563 11.34 9.69235 11.2858 9.87967C11.2045 10.1607 11.091 10.444 10.5417 10.444C10.1756 10.444 9.55649 10.0087 8.68449 9.13806C8.56688 9.02225 8.48488 8.96434 8.43848 8.96434C8.3689 8.96434 8.56654 7.86898 8.55727 7.74659C8.54799 7.62421 8.50954 7.46532 8.33294 7.57134C8.24745 7.62266 8.22933 7.93539 8.12582 8.40181C8.09978 8.5191 8.03399 8.70661 7.92844 8.96434Z" fill="#623E42"/>
<path d="M7.85032 8.88628C7.80477 8.71074 7.78199 8.5898 7.78199 8.52345C7.78199 8.42394 7.84144 8.33691 7.85032 8.26532C7.86771 8.12506 7.72996 7.80433 7.56387 7.80433C7.39777 7.80433 7.39583 8.07392 7.39777 8.18726C7.40561 8.64984 7.55487 9.36807 7.56387 9.43116C7.62951 9.89156 7.73233 10.1483 7.92299 10.1724C8.1887 10.2061 8.08451 9.95025 8.1408 9.86637C8.14929 9.85373 8.22559 9.87875 8.29996 9.95025C8.50108 10.1436 8.85081 10.5676 9.02703 10.6717C9.2649 10.814 9.43086 10.9006 9.5249 10.9315C9.76425 11.0101 9.93299 10.9696 9.97733 10.9692C10.0451 10.9686 9.761 10.7205 9.73952 10.7031C9.60257 10.5925 9.45562 10.5421 9.45562 10.4771C9.75731 10.6242 9.96239 10.721 10.0709 10.7675C10.3218 10.8751 10.4764 10.9133 10.492 10.9315C10.533 10.9794 10.281 11.0121 10.2997 11.0404C10.3453 11.1095 10.7811 11.2121 11.1736 11.0404C11.5661 10.8687 11.7063 10.3765 11.7063 10.0826C11.7063 9.39122 11.0754 8.85146 10.9867 8.85146C11.1883 9.29757 11.2619 9.61429 11.2077 9.80161C11.1264 10.0826 11.0128 10.3659 10.4636 10.3659C10.0975 10.3659 9.47837 9.93061 8.60636 9.06C8.48875 8.94419 8.40675 8.88628 8.36036 8.88628C8.29077 8.88628 8.48841 7.79092 8.47914 7.66853C8.46987 7.54615 8.43142 7.38726 8.25481 7.49328C8.16932 7.5446 8.15121 7.85733 8.04769 8.32375C8.02166 8.44104 7.95587 8.62855 7.85032 8.88628Z" fill="#F95300"/>
<path fill-rule="evenodd" clip-rule="evenodd" d="M7.14394 8.60153C6.94356 8.05611 6.63274 7.3694 6.28619 7.41404C5.93963 7.45868 5.86912 8.41246 6.00544 8.64578C6.14176 8.87909 6.30516 8.71773 6.32441 8.64578C6.33724 8.59781 6.33724 8.50073 6.32441 8.35455C6.5316 8.61664 6.60928 8.90882 6.55745 9.2311C6.29379 9.17775 6.10979 9.22011 6.00544 9.35816C5.84892 9.56525 5.67612 10.4908 6.05367 10.8846C6.43123 11.2784 7.16987 10.5389 7.16987 10.5389C7.28618 9.61095 7.27754 8.96515 7.14394 8.60153ZM6.56081 10.7399C6.59543 10.5133 6.65827 10.4073 6.74933 10.4219C6.80877 10.4314 6.82103 10.5174 6.74933 10.6048C6.7239 10.6358 6.66106 10.6808 6.56081 10.7399ZM6.53879 9.48139C6.49817 9.42292 6.34843 9.48139 6.25454 9.57044C6.0634 9.75174 6.14518 10.0651 6.37573 9.9496C6.51767 9.87851 6.60385 9.57505 6.53879 9.48139ZM6.56347 8.5365C6.54543 8.50254 6.50804 8.39628 6.4513 8.2177C6.56121 8.35315 6.62913 8.45265 6.65505 8.51619C6.71679 8.66751 6.70176 8.81157 6.65505 8.90727C6.61204 8.69404 6.58151 8.57045 6.56347 8.5365Z" fill="#623E42"/>
<path fill-rule="evenodd" clip-rule="evenodd" d="M7.02676 8.5625C6.82637 8.01708 6.51555 7.33037 6.169 7.37501C5.82245 7.41965 5.75193 8.37343 5.88825 8.60675C6.02457 8.84006 6.18797 8.6787 6.20722 8.60675C6.22006 8.55878 6.22006 8.4617 6.20722 8.31552C6.41441 8.57761 6.49209 8.86979 6.44026 9.19207C6.1766 9.13872 5.9926 9.18108 5.88825 9.31913C5.73173 9.52622 5.55893 10.4518 5.93649 10.8456C6.31404 11.2394 7.05269 10.4999 7.05269 10.4999C7.16899 9.57192 7.16035 8.92612 7.02676 8.5625ZM6.44368 10.7009C6.47831 10.4743 6.54115 10.3682 6.63221 10.3828C6.69164 10.3924 6.70391 10.4783 6.63221 10.5657C6.60678 10.5968 6.54393 10.6418 6.44368 10.7009ZM6.42167 9.44236C6.38105 9.38389 6.2313 9.44236 6.13742 9.53141C5.94628 9.71271 6.02806 10.026 6.25861 9.91057C6.40055 9.83948 6.48673 9.53602 6.42167 9.44236ZM6.44635 8.49747C6.42831 8.46351 6.39092 8.35725 6.33418 8.17867C6.44409 8.31412 6.51201 8.41362 6.53793 8.47716C6.59967 8.62848 6.58464 8.77254 6.53793 8.86824C6.49492 8.65501 6.46439 8.53142 6.44635 8.49747Z" fill="#88C603"/>
<path fill-rule="evenodd" clip-rule="evenodd" d="M4.75658 8.9343C4.7478 8.64636 4.73938 8.37002 4.65539 8.26637C4.4987 8.07301 4.43599 8.29066 4.41895 8.5189L4.41777 8.53582L4.41631 8.56119L4.41553 8.57805C4.41435 8.60608 4.41381 8.63375 4.41381 8.6603C4.41381 8.71776 4.42028 8.81218 4.42797 8.92441C4.45509 9.32039 4.49742 9.93824 4.32457 9.93824C4.23335 9.93824 4.11955 9.71121 4.05387 9.41959C4.03855 9.35161 4.02573 9.27979 4.01441 9.207L4.00965 9.17575L4.00505 9.14444L4.0006 9.11311C3.99695 9.087 3.99343 9.06094 3.99001 9.03504L3.98594 9.00404C3.98355 8.98576 3.9812 8.96758 3.97887 8.94956C3.94251 8.66823 3.91111 8.42532 3.82273 8.40012C3.70136 8.36552 3.65415 8.50413 3.68108 8.81595C3.75705 9.52611 3.74806 10.04 3.65409 10.3575C3.55259 10.7006 3.37141 10.6095 3.25146 10.5492C3.20484 10.5258 3.16747 10.507 3.14762 10.5201C3.13663 10.5376 3.13612 10.5773 3.13545 10.6291C3.13469 10.6879 3.13372 10.7623 3.11703 10.8377C3.10008 10.9141 3.06829 10.9914 3.04279 11.0535C3.01917 11.1109 3.00095 11.1553 3.00495 11.1736C3.01583 11.2233 3.09446 11.2806 3.24084 11.3454V11.7375C3.24084 11.8007 3.36309 11.8274 3.41634 11.8007C3.39617 11.7214 3.42432 11.6038 3.50077 11.4478C3.7638 11.5075 4.00573 11.2979 4.22654 10.8191C4.22654 10.8458 4.3297 10.9463 4.53601 11.1204C4.55936 11.1614 4.75116 11.0674 4.86915 10.9126C4.93102 10.8315 4.97201 10.7332 5.00136 10.6628C5.02721 10.6008 5.04402 10.5604 5.05809 10.5727C5.11172 10.6192 5.1158 10.8648 5.11603 10.9953L5.11603 11.0392C5.11603 11.1311 5.30982 11.1255 5.43852 11.1217C5.46118 11.121 5.48183 11.1204 5.49904 11.1204C5.59185 11.1204 5.57177 10.6897 5.56059 10.4498C5.55792 10.3925 5.55576 10.3461 5.55576 10.3191C5.55576 10.2441 5.42768 9.95108 5.1655 9.75523C5.12197 9.72271 5.04753 9.72271 4.94219 9.75523C4.77922 9.67658 4.76762 9.29627 4.75658 8.9343ZM3.26845 11.2825C3.15029 11.2165 3.14277 11.0794 3.14277 11.0794C3.14277 11.0794 3.46003 11.3084 3.56365 11.2825C3.44562 11.3266 3.34722 11.3266 3.26845 11.2825Z" fill="#623E42"/>
<path fill-rule="evenodd" clip-rule="evenodd" d="M4.67895 8.85624C4.67017 8.5683 4.66174 8.29196 4.57775 8.18831C4.42106 7.99495 4.35836 8.2126 4.34132 8.44084L4.34014 8.45776L4.33867 8.48313L4.33789 8.49999C4.33672 8.52802 4.33617 8.55569 4.33617 8.58224C4.33617 8.6397 4.34264 8.73412 4.35033 8.84635C4.37746 9.24233 4.41978 9.86018 4.24694 9.86018C4.15572 9.86018 4.04191 9.63315 3.97623 9.34153C3.96092 9.27355 3.9481 9.20173 3.93677 9.12894L3.93201 9.09769L3.92741 9.06638L3.92296 9.03505C3.91931 9.00894 3.91579 8.98288 3.91237 8.95698L3.9083 8.92598C3.90591 8.9077 3.90356 8.88952 3.90123 8.8715C3.86487 8.59017 3.83347 8.34726 3.74509 8.32206C3.62372 8.28746 3.57651 8.42607 3.60345 8.73789C3.67942 9.44805 3.67042 9.96191 3.57646 10.2795C3.47496 10.6225 3.29378 10.5314 3.17382 10.4711C3.12721 10.4477 3.08984 10.4289 3.06998 10.4421C3.05899 10.4595 3.05848 10.4992 3.05781 10.551C3.05705 10.6098 3.05609 10.6843 3.03939 10.7596C3.02244 10.836 2.99065 10.9134 2.96515 10.9754C2.94153 11.0329 2.92331 11.0772 2.92731 11.0955C2.93819 11.1452 3.01683 11.2025 3.16321 11.2674V11.6594C3.16321 11.7227 3.28545 11.7493 3.3387 11.7227C3.31854 11.6434 3.34668 11.5257 3.42314 11.3697C3.68617 11.4294 3.92809 11.2199 4.14891 10.741C4.14891 10.7678 4.25206 10.8682 4.45838 11.0424C4.48173 11.0833 4.67352 10.9893 4.79151 10.8346C4.85338 10.7534 4.89438 10.6551 4.92372 10.5847C4.94957 10.5227 4.96638 10.4824 4.98045 10.4946C5.03408 10.5412 5.03816 10.7867 5.03839 10.9172L5.03839 10.9611C5.03839 11.0531 5.23218 11.0474 5.36088 11.0437C5.38355 11.043 5.40419 11.0424 5.42141 11.0424C5.51421 11.0424 5.49414 10.6116 5.48296 10.3717C5.48029 10.3145 5.47812 10.2681 5.47812 10.241C5.47812 10.166 5.35005 9.87302 5.08787 9.67717C5.04433 9.64465 4.96989 9.64465 4.86455 9.67717C4.70158 9.59852 4.68999 9.21821 4.67895 8.85624ZM3.19039 11.2045C3.07223 11.1384 3.06471 11.0014 3.06471 11.0014C3.06471 11.0014 3.38197 11.2303 3.48559 11.2045C3.36756 11.2485 3.26916 11.2485 3.19039 11.2045Z" fill="#F95300"/>
<path fill-rule="evenodd" clip-rule="evenodd" d="M2.1765 4.90834C2.69042 4.86399 2.98689 5.28613 3.17587 5.69683C3.30185 5.97063 3.24617 6.23034 3.00883 6.47597L2.94138 6.99591C2.8936 7.05045 2.80656 7.01971 2.80322 6.88725C2.80147 6.81796 2.82514 6.71831 2.84551 6.63259L2.84551 6.63258C2.86185 6.56377 2.87607 6.50393 2.8733 6.47597C2.84204 6.16054 2.58995 5.92856 2.31724 5.84534C2.02465 5.75606 1.53123 5.85712 1.2763 6.69472C1.02858 7.50861 1.06145 9.05094 1.1206 9.53595C1.24061 10.5201 1.52904 10.91 1.91025 10.8559C2.16439 10.8197 2.30006 10.4659 2.31724 9.79426C2.36358 9.64026 2.5878 9.61652 2.69356 9.6574C2.75293 9.68035 2.74564 9.7576 2.73543 9.86579C2.72746 9.95032 2.7177 10.0537 2.73657 10.1649C2.77958 10.4184 2.84074 11.0782 2.69356 11.3546C2.54638 11.631 2.00879 12.0446 1.46068 11.7351C1.18434 11.579 0.7051 10.9566 0.561394 9.83163C0.420055 8.72515 0.610445 7.11994 0.790013 6.47597C1.15216 5.17724 1.66257 4.95269 2.1765 4.90834ZM1.20299 11.2365C1.20299 11.2973 1.22793 11.3598 1.27781 11.4241C1.32386 11.4835 1.41169 11.5458 1.54131 11.6111L1.55313 11.6169L1.54313 11.6114C1.44263 11.5535 1.38567 11.4521 1.37227 11.3073L1.37108 11.2927L1.20299 11.2365ZM1.79544 11.0783C1.70135 11.0782 1.60951 11.011 1.51992 10.8767C1.75498 10.986 1.9152 11.0035 2.00057 10.9293C1.95791 11.0287 1.88953 11.0784 1.79544 11.0783Z" fill="#623E42"/>
<path fill-rule="evenodd" clip-rule="evenodd" d="M2.05931 4.79125C2.57323 4.7469 2.8697 5.16904 3.05868 5.57974C3.18466 5.85354 3.12898 6.11325 2.89164 6.35888L2.8242 6.87882C2.77641 6.93336 2.68937 6.90262 2.68603 6.77016C2.68428 6.70087 2.70795 6.60122 2.72832 6.5155L2.72832 6.51549C2.74467 6.44668 2.75888 6.38684 2.75611 6.35888C2.72485 6.04345 2.47276 5.81147 2.20005 5.72825C1.90746 5.63897 1.41405 5.74003 1.15911 6.57763C0.91139 7.39152 0.944266 8.93385 1.00341 9.41886C1.12343 10.403 1.41185 10.793 1.79306 10.7388C2.0472 10.7026 2.18287 10.3488 2.20005 9.67717C2.24639 9.52317 2.47061 9.49943 2.57637 9.54031C2.63574 9.56326 2.62845 9.64051 2.61825 9.7487C2.61027 9.83323 2.60051 9.93666 2.61938 10.0478C2.66239 10.3013 2.72355 10.9611 2.57637 11.2375C2.42919 11.5139 1.8916 11.9276 1.34349 11.618C1.06716 11.4619 0.587913 10.8395 0.444207 9.71454C0.302867 8.60806 0.493258 7.00285 0.672826 6.35888C1.03497 5.06015 1.54538 4.8356 2.05931 4.79125ZM1.08587 11.1194C1.08587 11.1802 1.11081 11.2427 1.16069 11.307C1.20673 11.3664 1.29457 11.4288 1.42419 11.494L1.43601 11.4999L1.42601 11.4943C1.3255 11.4364 1.26855 11.3351 1.25515 11.1902L1.25396 11.1756L1.08587 11.1194ZM1.67832 10.9612C1.58423 10.9611 1.49239 10.8939 1.4028 10.7596C1.63786 10.8689 1.79807 10.8864 1.88345 10.8122C1.84078 10.9116 1.77241 10.9613 1.67832 10.9612Z" fill="#88C603"/>
</svg>
